<?xml version="1.0" encoding="utf-8"?>
<!-- Generator: Adobe Illustrator 22.0.0, SVG Export Plug-In . SVG Version: 6.00 Build 0)  -->
<svg version="1.1" id="Layer_1" xmlns="http://www.w3.org/2000/svg" xmlns:xlink="http://www.w3.org/1999/xlink" x="0px" y="0px"
	 viewBox="0 0 362.7 512.3" style="enable-background:new 0 0 362.7 512.3;" xml:space="preserve">
<style type="text/css">
	.st0{fill:#E44D26;}
	.st1{fill:#F16529;}
	.st2{fill:#EBEBEB;}
	.st3{fill:#FFFFFF;}
</style>
<polygon class="st0" points="33,471.2 0,101 362.7,101 329.7,471.2 181.1,512.3 "/>
<polygon class="st1" points="181.4,480.9 301.4,447.6 329.6,131.2 181.4,131.2 "/>
<polygon class="st2" points="181.4,268.6 121.3,268.6 117.1,222 181.4,222 181.4,176.6 181.2,176.6 67.5,176.6 68.6,188.8 79.7,314 
	181.4,314 "/>
<polygon class="st2" points="181.4,386.5 181.2,386.5 130.6,372.9 127.4,336.7 102.8,336.7 81.8,336.7 88.1,408 181.2,433.8 
	181.4,433.7 "/>
<path d="M33.7,0.3h23.1v22.8h21.1V0.3H101v69H77.9V46.3H56.8v23.1H33.8L33.7,0.3L33.7,0.3z"/>
<path d="M131.4,23.2H111V0.3h63.7v22.9h-20.3v46.1h-23.1L131.4,23.2L131.4,23.2z"/>
<path d="M184.9,0.3h24.1l14.8,24.3l14.8-24.3h24.1v69h-23V35.2l-15.9,24.5h-0.4l-15.9-24.5v34.2h-22.6V0.3z"/>
<path d="M274.1,0.3h23.1v46.2h32.5v22.8h-55.5V0.3z"/>
<polygon class="st3" points="181.2,268.6 181.2,314 237.1,314 231.9,372.9 181.2,386.5 181.2,433.8 274.3,408 275,400.3 
	285.7,280.7 286.8,268.6 274.5,268.6 "/>
<polygon class="st3" points="181.2,176.6 181.2,204.8 181.2,221.9 181.2,222 290.8,222 290.8,222 290.9,222 291.8,211.8 
	293.9,188.8 295,176.6 "/>
</svg>
